<?xml version="1.0" standalone="no"?><svg xmlns="http://www.w3.org/2000/svg" viewBox="0 0 1440 320"><path fill="#23104d" fill-opacity="1" d="M0,192L24,192C48,192,96,192,144,202.7C192,213,240,235,288,218.7C336,203,384,149,432,117.3C480,85,528,75,576,80C624,85,672,107,720,112C768,117,816,107,864,106.7C912,107,960,117,1008,144C1056,171,1104,213,1152,197.3C1200,181,1248,107,1296,85.3C1344,64,1392,96,1416,112L1440,128L1440,320L1416,320C1392,320,1344,320,1296,320C1248,320,1200,320,1152,320C1104,320,1056,320,1008,320C960,320,912,320,864,320C816,320,768,320,720,320C672,320,624,320,576,320C528,320,480,320,432,320C384,320,336,320,288,320C240,320,192,320,144,320C96,320,48,320,24,320L0,320Z"></path></svg>