<?xml version="1.0" standalone="no"?><svg xmlns="http://www.w3.org/2000/svg" viewBox="0 0 1440 320"><path fill="#fff" fill-opacity="1" d="M0,64L12.6,64C25.3,64,51,64,76,64C101.1,64,126,64,152,96C176.8,128,202,192,227,186.7C252.6,181,278,107,303,85.3C328.4,64,354,96,379,138.7C404.2,181,429,235,455,234.7C480,235,505,181,531,170.7C555.8,160,581,192,606,176C631.6,160,657,96,682,112C707.4,128,733,224,758,250.7C783.2,277,808,235,834,213.3C858.9,192,884,192,909,208C934.7,224,960,256,985,256C1010.5,256,1036,224,1061,229.3C1086.3,235,1112,277,1137,288C1162.1,299,1187,277,1213,229.3C1237.9,181,1263,107,1288,117.3C1313.7,128,1339,224,1364,245.3C1389.5,267,1415,213,1427,186.7L1440,160L1440,320L1427.4,320C1414.7,320,1389,320,1364,320C1338.9,320,1314,320,1288,320C1263.2,320,1238,320,1213,320C1187.4,320,1162,320,1137,320C1111.6,320,1086,320,1061,320C1035.8,320,1011,320,985,320C960,320,935,320,909,320C884.2,320,859,320,834,320C808.4,320,783,320,758,320C732.6,320,707,320,682,320C656.8,320,632,320,606,320C581.1,320,556,320,531,320C505.3,320,480,320,455,320C429.5,320,404,320,379,320C353.7,320,328,320,303,320C277.9,320,253,320,227,320C202.1,320,177,320,152,320C126.3,320,101,320,76,320C50.5,320,25,320,13,320L0,320Z"></path></svg>